<?xml version="1.0" standalone="no"?>
<!DOCTYPE svg PUBLIC "-//W3C//DTD SVG 20010904//EN"
 "http://www.w3.org/TR/2001/REC-SVG-20010904/DTD/svg10.dtd">
<svg version="1.0" xmlns="http://www.w3.org/2000/svg"
 width="684.000000pt" height="192.000000pt" viewBox="0 0 684.000000 192.000000"
 preserveAspectRatio="xMidYMid meet">
<metadata>
Created by potrace 1.10, written by Peter Selinger 2001-2011
</metadata>
<g transform="translate(0.000000,192.000000) scale(0.100000,-0.100000)"
fill="#e69138" stroke="none">
<path d="M0 960 l0 -960 3420 0 3420 0 0 960 0 960 -3420 0 -3420 0 0 -960z
m1063 344 c23 -15 78 -50 122 -79 44 -28 115 -73 159 -101 43 -27 92 -61 109
-75 l30 -25 -42 -33 c-22 -18 -41 -38 -41 -44 0 -7 16 -25 35 -40 19 -15 35
-34 35 -41 0 -8 -24 -29 -52 -47 -70 -44 -198 -126 -303 -194 -47 -30 -94 -55
-105 -55 -12 0 -109 57 -218 126 -108 69 -207 133 -219 140 -33 21 -28 49 12
74 19 12 35 28 35 36 0 8 -18 27 -40 42 -21 15 -39 32 -40 37 0 9 110 88 145
105 6 3 49 30 95 60 184 121 215 140 228 140 7 0 31 -12 55 -26z m1064 -119
c111 -80 109 -241 -4 -319 -37 -26 -54 -30 -128 -34 -46 -2 -89 -10 -94 -16
-6 -6 -11 -38 -13 -70 -3 -66 -18 -83 -61 -72 -22 5 -26 13 -32 59 -4 28 -5
146 -3 260 2 171 6 210 18 218 9 5 71 8 145 7 126 -3 131 -4 172 -33z m681 23
c17 -17 17 -509 0 -526 -15 -15 -51 -15 -66 0 -9 9 -12 81 -12 263 0 264 2
275 45 275 12 0 26 -5 33 -12z m210 -20 c4 -35 -33 -57 -67 -39 -43 23 -18 74
34 69 24 -2 31 -8 33 -30z m1806 26 c25 -10 20 -53 -8 -65 -32 -15 -66 4 -66
36 0 31 34 44 74 29z m-1558 -71 c8 -45 17 -53 66 -53 46 0 72 -23 58 -51 -7
-13 -21 -19 -43 -19 -78 0 -77 1 -77 -133 0 -140 8 -157 72 -157 35 0 38 -2
38 -29 0 -17 -6 -31 -16 -35 -26 -10 -101 -7 -128 6 -51 23 -61 51 -66 203
l-5 140 -28 3 c-29 4 -50 31 -38 50 4 7 21 16 37 21 17 4 30 15 32 27 9 62 11
64 52 64 37 0 39 -2 46 -37z m-718 -67 c59 -30 72 -75 72 -245 0 -126 -2 -150
-16 -155 -30 -11 -52 -6 -67 17 l-15 22 -22 -20 c-18 -16 -36 -20 -101 -20
-72 0 -81 2 -105 27 -20 19 -28 39 -31 75 -7 90 48 143 151 143 102 0 129 17
104 63 -16 31 -27 37 -79 37 -36 0 -51 -5 -69 -25 -23 -25 -44 -30 -74 -19
-41 16 3 85 69 110 49 18 139 13 183 -10z m1521 0 c64 -34 111 -119 111 -203
0 -50 -31 -123 -66 -157 -105 -102 -309 -57 -345 77 -15 57 -7 176 15 213 21
36 74 73 118 85 43 11 132 2 167 -15z m504 3 c14 -6 34 -28 46 -49 20 -36 21
-51 19 -197 l-3 -158 -28 -3 c-52 -6 -57 7 -57 161 0 131 -2 142 -22 164 -26
28 -91 31 -126 7 -37 -25 -46 -60 -51 -199 l-6 -130 -35 0 -35 0 -3 194 c-2
134 1 198 9 207 17 21 45 17 61 -8 15 -22 15 -22 44 -3 54 35 129 41 187 14z
m667 -4 c67 -34 91 -106 44 -127 -24 -11 -29 -9 -64 30 -35 38 -44 42 -85 42
-61 0 -99 -35 -109 -101 -19 -124 56 -214 148 -180 30 12 65 48 66 69 0 20 46
19 69 -3 33 -32 -27 -115 -96 -134 -138 -39 -263 31 -279 155 -17 142 33 238
139 265 42 11 132 2 167 -16z m395 14 c55 -14 95 -56 106 -111 4 -24 8 -96 9
-160 0 -93 -3 -120 -16 -132 -20 -21 -36 -20 -66 3 -24 19 -25 19 -54 0 -21
-14 -47 -19 -92 -19 -59 0 -66 2 -98 34 -30 30 -34 40 -34 89 0 44 5 59 25 81
33 36 65 46 143 46 80 0 95 8 90 46 -7 62 -115 78 -163 24 -37 -41 -94 -16
-76 33 23 61 127 91 226 66z m-2626 -13 c8 -9 11 -73 9 -207 l-3 -194 -28 -3
c-54 -6 -57 3 -57 204 0 153 3 185 16 198 19 20 48 21 63 2z m546 -13 c11 -26
33 -30 41 -8 7 18 76 40 99 31 11 -4 15 -15 13 -32 -3 -28 -6 -30 -70 -57 -58
-25 -72 -62 -78 -202 l-5 -120 -40 0 -40 0 -3 185 c-3 225 -2 232 41 228 22
-2 35 -10 42 -25z m1273 15 c9 -9 12 -68 12 -205 l0 -193 -27 -6 c-55 -14 -58
-4 -61 201 -2 130 1 192 9 201 14 17 51 18 67 2z"/>
<path d="M957 1240 c-14 -11 -28 -20 -31 -20 -3 0 -25 -13 -48 -29 -24 -16
-81 -54 -128 -84 -109 -69 -118 -80 -88 -101 36 -25 26 -30 242 107 49 32 97
57 106 57 10 0 71 -34 136 -77 162 -104 171 -108 200 -94 49 22 30 43 -118
135 -35 22 -93 59 -129 83 -73 48 -104 53 -142 23z"/>
<path d="M885 1037 c-60 -39 -111 -80 -113 -89 -2 -11 6 -22 22 -29 23 -11 34
-7 110 39 47 29 95 52 108 52 13 0 54 -20 92 -45 37 -25 78 -48 90 -51 27 -6
61 18 53 39 -7 19 -215 157 -237 157 -8 0 -64 -33 -125 -73z"/>
<path d="M950 926 c-72 -48 -73 -66 -6 -108 55 -35 76 -35 129 -1 71 47 72 52
10 98 -56 40 -85 43 -133 11z"/>
<path d="M668 896 c-34 -25 -19 -44 88 -113 58 -37 135 -87 171 -110 36 -24
74 -43 83 -43 10 0 50 22 91 48 71 47 200 129 247 158 30 19 28 48 -4 63 -28
12 -41 5 -255 -135 -37 -24 -72 -44 -78 -44 -7 0 -38 17 -69 37 -31 21 -65 42
-74 48 -9 5 -48 29 -85 52 -85 53 -94 56 -115 39z"/>
<path d="M1908 1129 c-15 -8 -18 -25 -18 -104 0 -108 6 -116 82 -114 66 2 91
12 115 48 42 62 22 149 -38 170 -40 14 -118 14 -141 0z"/>
<path d="M2382 844 c-26 -18 -30 -65 -6 -88 9 -9 32 -16 56 -16 63 0 121 73
86 108 -17 17 -109 15 -136 -4z"/>
<path d="M3889 992 c-27 -24 -32 -36 -36 -92 -7 -86 13 -135 61 -155 47 -20
75 -19 113 5 70 42 71 205 2 254 -38 26 -103 21 -140 -12z"/>
<path d="M5515 848 c-38 -22 -47 -64 -19 -92 49 -50 175 16 157 82 -5 19 -12
22 -62 22 -31 0 -65 -6 -76 -12z"/>
</g>
</svg>
